<?xml version="1.0" encoding="utf-8"?>
<!-- Generator: Adobe Illustrator 23.0.3, SVG Export Plug-In . SVG Version: 6.00 Build 0)  -->
<svg version="1.1" id="Layer_1" xmlns="http://www.w3.org/2000/svg" xmlns:xlink="http://www.w3.org/1999/xlink" x="0px" y="0px"
	 viewBox="0 0 446 446" style="enable-background:new 0 0 446 446;" xml:space="preserve">
<style type="text/css">
	.st0{fill:#777777;}
	.st1{fill:#EBEBEB;}
</style>
<circle class="st0" cx="223" cy="223" r="223"/>
<g>
	<path class="st1" d="M124.1,135.2c0-15.1,7.5-28.9,22.5-41.2c15-12.3,38.6-18.5,70.8-18.5c38.5,0,65.6,6.3,81.2,18.8
		c15.6,12.5,23.4,26.6,23.4,42.4c0,20.4-11.7,36.9-35,49.4c-36.2,20.4-54.3,46.9-54.3,79.5v10.9c0,3.6-0.2,6.3-0.5,8.1
		c-0.3,1.8-1.8,3.8-4.4,5.9c-2.6,2.1-6.7,3.2-12.3,3.2h-0.5c-3.3,0-5.8-0.2-7.6-0.5c-1.8-0.3-3.7-1.7-5.7-4.2s-3-6.2-3-11.1v-11.4
		c0-13.2,2.1-25.4,6.2-36.8c4.1-11.4,10.1-21.1,18-29.1c7.9-8.1,14.7-14.5,20.5-19.2c5.8-4.8,13-9.7,21.7-14.8
		c8.7-5.1,13.4-7.8,14.1-8.1c8.6-6.9,12.8-14.1,12.8-21.7c0-9.2-5.7-17.4-17-24.4c-11.4-7.1-30.4-10.6-57-10.6
		c-29,0-49,7.2-60.2,21.7v0.5c3.3,4.6,4.9,8.9,4.9,12.8c0,5.6-1.9,10.2-5.7,13.8c-3.8,3.6-8.3,5.4-13.6,5.4c-5.3,0-9.8-1.9-13.6-5.7
		C125.9,146.5,124.1,141.5,124.1,135.2z M194.1,358.3c0-5.9,2.1-10.9,6.2-15.1c4.1-4.1,9.1-6.2,15.1-6.2c5.6,0,10.5,2.1,14.8,6.2
		c4.3,4.1,6.4,9.1,6.4,15.1c0,5.9-2.1,10.9-6.4,14.8c-4.3,3.9-9.2,5.9-14.8,5.9c-6.3,0-11.4-2.1-15.3-6.2
		C196.1,368.7,194.1,363.9,194.1,358.3z"/>
</g>
</svg>
