<svg id="Layer_1" data-name="Layer 1" xmlns="http://www.w3.org/2000/svg" viewBox="0 0 44 44"><defs><style>.cls-1{fill-rule:evenodd;}.cls-2{fill:#fff;}</style></defs><title>Chess_Pieces_Sprite</title><path class="cls-1" d="M8.5,38.5h27v-3H8.5Z"/><path d="M35.5,39.25H8.5a.76.76,0,0,1-.75-.75v-3a.76.76,0,0,1,.75-.75h27a.76.76,0,0,1,.75.75v3A.76.76,0,0,1,35.5,39.25ZM9.25,37.75h25.5v-1.5H9.25Z"/><path class="cls-1" d="M12,31.5,13.5,29h17L32,31.5Z"/><path d="M32,32.25H12a.75.75,0,0,1-.65-.38.74.74,0,0,1,0-.76l1.5-2.5a.75.75,0,0,1,.64-.36h17a.75.75,0,0,1,.64.36l1.5,2.5a.74.74,0,0,1,0,.76A.75.75,0,0,1,32,32.25Zm-18.68-1.5H30.68l-.6-1H13.92Z"/><path class="cls-1" d="M11.5,35.5v-4h21v4Z"/><path d="M32.5,36.25h-21a.76.76,0,0,1-.75-.75v-4a.76.76,0,0,1,.75-.75h21a.76.76,0,0,1,.75.75v4A.76.76,0,0,1,32.5,36.25Zm-20.25-1.5h19.5v-2.5H12.25Z"/><path class="cls-1" d="M13.5,29V16h17V29Z"/><path d="M31.25,29.75H12.75V15.25h18.5Zm-17-1.5h15.5V16.75H14.25Z"/><path class="cls-1" d="M13.5,16l-3-2.5h23l-3,2.5Z"/><path d="M30.5,16.75h-17a.74.74,0,0,1-.48-.17l-3-2.5a.77.77,0,0,1-.23-.83.76.76,0,0,1,.71-.5h23a.76.76,0,0,1,.71.5.77.77,0,0,1-.23.83l-3,2.5A.74.74,0,0,1,30.5,16.75Zm-16.73-1.5H30.23l1.2-1H12.57Z"/><path class="cls-1" d="M10.5,13.5v-5h4v2h5v-2h5v2h5v-2h4v5Z"/><path d="M33.5,14.25h-23a.76.76,0,0,1-.75-.75v-5a.76.76,0,0,1,.75-.75h4a.76.76,0,0,1,.75.75V9.75h3.5V8.5a.76.76,0,0,1,.75-.75h5a.76.76,0,0,1,.75.75V9.75h3.5V8.5a.76.76,0,0,1,.75-.75h4a.76.76,0,0,1,.75.75v5A.76.76,0,0,1,33.5,14.25Zm-22.25-1.5h21.5V9.25h-2.5V10.5a.76.76,0,0,1-.75.75h-5a.76.76,0,0,1-.75-.75V9.25h-3.5V10.5a.76.76,0,0,1-.75.75h-5a.76.76,0,0,1-.75-.75V9.25h-2.5Z"/><path class="cls-2" d="M32.5,35.5h-21a.5.5,0,0,1,0-1h21a.5.5,0,0,1,0,1Z"/><path class="cls-2" d="M31.5,31.5h-19a.5.5,0,0,1,0-1h19a.5.5,0,0,1,0,1Z"/><path class="cls-2" d="M30.5,29.5h-17a.5.5,0,0,1,0-1h17a.5.5,0,0,1,0,1Z"/><path class="cls-2" d="M30.5,16.5h-17a.5.5,0,0,1,0-1h17a.5.5,0,0,1,0,1Z"/><path class="cls-2" d="M33.5,14h-23a.5.5,0,0,1,0-1h23a.5.5,0,0,1,0,1Z"/></svg>