<svg id="Layer_1" data-name="Layer 1" xmlns="http://www.w3.org/2000/svg" viewBox="0 0 44 44"><defs><style>.cls-1{fill-rule:evenodd;}.cls-2{fill:#fff;}</style></defs><title>Chess_Pieces_Sprite</title><circle cx="5.5" cy="11.5" r="2.75"/><circle cx="13.5" cy="8.5" r="2.75"/><circle cx="22" cy="7.5" r="2.75"/><circle cx="30.5" cy="8.5" r="2.75"/><circle cx="38.5" cy="11.5" r="2.75"/><path class="cls-1" d="M8.5,25.5c8.5-1.5,21-1.5,27,0L38,13,30.5,24.5l-.3-14.1L25,24,22,9.5,19,24,13.8,10.4l-.3,14.1L6,13Z"/><path d="M8.5,26.25a.77.77,0,0,1-.74-.6l-2.5-12.5a.76.76,0,0,1,1.37-.56l6.17,9.47.25-11.68a.76.76,0,0,1,.62-.72.77.77,0,0,1,.83.47l4.29,11.21,2.48-12a.74.74,0,0,1,1.46,0l2.48,12L29.5,10.13a.77.77,0,0,1,.83-.47.76.76,0,0,1,.62.72l.25,11.68,6.17-9.47a.76.76,0,0,1,1.37.56l-2.5,12.5a.76.76,0,0,1-.34.48.74.74,0,0,1-.58.1c-5.87-1.47-18.34-1.46-26.69,0Zm-1-9.58,1.59,8c1.06-.17,2.17-.32,3.31-.45Zm24.17,7.41c1.19.14,2.28.31,3.25.52l1.58-7.93Zm-17.2-9.83L14.26,24c1.26-.11,2.54-.2,3.84-.26Zm11.46,9.42c1.32,0,2.6.11,3.81.21l-.21-9.63ZM22,13.2,19.83,23.67c1.46-.05,2.91-.07,4.33,0Z"/><path class="cls-1" d="M8.5,25.5c0,2,1.5,2,2.5,4,1,1.5,1,1,.5,3.5A3.23,3.23,0,0,0,10,35.5c-1.5,1.5.5,2.5.5,2.5a88.54,88.54,0,0,0,23,0s1.5-1,0-2.5a2.22,2.22,0,0,0-1-2.5c-.5-2.5-.5-2,.5-3.5,1-2,2.5-2,2.5-4A81.56,81.56,0,0,0,8.5,25.5Z"/><path d="M22,39.5a79.93,79.93,0,0,1-11.61-.76.62.62,0,0,1-.23-.07A2.73,2.73,0,0,1,8.72,36.9a2.07,2.07,0,0,1,.56-1.72,4,4,0,0,1,1.54-2.62l0-.21c.27-1.34.27-1.34-.13-1.91-.11-.15-.23-.32-.36-.52a5.45,5.45,0,0,0-1.27-1.63A3.47,3.47,0,0,1,7.75,25.5a.75.75,0,0,1,.62-.74,83.13,83.13,0,0,1,27.26,0,.75.75,0,0,1,.62.74,3.47,3.47,0,0,1-1.36,2.79,5.25,5.25,0,0,0-1.22,1.54c-.18.29-.3.46-.41.61-.4.57-.4.57-.13,1.91l0,.22a3,3,0,0,1,1.13,2.71,2.32,2.32,0,0,1,.6,1.73,2.35,2.35,0,0,1-1,1.61.84.84,0,0,1-.31.12A79.93,79.93,0,0,1,22,39.5ZM10.75,37.28a89.08,89.08,0,0,0,22.43,0,.79.79,0,0,0,.24-.43A1.26,1.26,0,0,0,33,36a.75.75,0,0,1-.18-.77,1.48,1.48,0,0,0-.71-1.64.77.77,0,0,1-.32-.47l-.1-.5c-.36-1.78-.37-2,.38-3.07l.34-.5a6.51,6.51,0,0,1,1.47-1.87,2.66,2.66,0,0,0,.82-1.09,81.57,81.57,0,0,0-25.34,0,2.66,2.66,0,0,0,.82,1.09,6.72,6.72,0,0,1,1.52,2c.08.11.2.27.29.41.75,1.06.74,1.29.38,3.07l-.1.5a.77.77,0,0,1-.32.47,2.51,2.51,0,0,0-1.17,1.88.75.75,0,0,1-.22.53c-.17.17-.37.42-.33.63S10.56,37.16,10.75,37.28Z"/><path d="M22,40.68a35.74,35.74,0,0,1-11.75-2l.5-1.42a34.3,34.3,0,0,0,22.5,0l.5,1.42A35.74,35.74,0,0,1,22,40.68Z"/><path class="cls-2" d="M33.5,29.25a.73.73,0,0,1-.25,0,34.3,34.3,0,0,0-22.5,0,.75.75,0,0,1-.5-1.42,36,36,0,0,1,23.5,0,.76.76,0,0,1,.46,1A.75.75,0,0,1,33.5,29.25Z"/><path class="cls-2" d="M32,31.75H12a.75.75,0,0,1,0-1.5H32a.75.75,0,0,1,0,1.5Z"/><path class="cls-2" d="M22,36.51a35.82,35.82,0,0,1-11.24-1.8.75.75,0,0,1-.47-1,.74.74,0,0,1,1-.47,34.56,34.56,0,0,0,21.52,0,.75.75,0,0,1,.48,1.42A35.82,35.82,0,0,1,22,36.51Z"/><path class="cls-2" d="M22,39.87A35.6,35.6,0,0,1,9.74,37.7a.75.75,0,1,1,.52-1.4,34.33,34.33,0,0,0,23.48,0,.75.75,0,0,1,.52,1.4A35.6,35.6,0,0,1,22,39.87Z"/></svg>