<svg id="Layer_1" data-name="Layer 1" xmlns="http://www.w3.org/2000/svg" viewBox="0 0 44 44"><defs><style>.cls-1{fill-rule:evenodd;}.cls-2{fill:#fff;}</style></defs><title>Chess_Pieces_Sprite</title><path d="M22,11.88a.76.76,0,0,1-.75-.75V5.5a.75.75,0,0,1,1.5,0v5.63A.76.76,0,0,1,22,11.88Z"/><path class="cls-1" d="M22,24.5S26.5,17,25,14c0,0-1-2.5-3-2.5S19,14,19,14c-1.5,3,3,10.5,3,10.5"/><path d="M22,26l-.64-1.07c-.49-.81-4.67-7.95-3-11.22,0-.07,1.19-2.92,3.67-2.92s3.65,2.85,3.7,3c1.61,3.22-2.57,10.36-3.06,11.17Zm0-13.71c-1.45,0-2.3,2-2.3,2-.86,1.73.77,5.85,2.3,8.7,1.53-2.86,3.17-7,2.33-8.65C24.3,14.26,23.46,12.25,22,12.25Z"/><path class="cls-1" d="M11,36.5c5.5,3.5,15.5,3.5,21,0v-7S41,25,38,19c-4-6.5-13.5-3.5-16,4v0C18.5,15.5,9,12.5,6,19c-3,6,5,10,5,10Z"/><path d="M21.5,39.86a20.88,20.88,0,0,1-10.9-2.73.73.73,0,0,1-.35-.63v-7a15.34,15.34,0,0,1-3.42-2.69C4.47,24.22,4,21.42,5.33,18.67a6.56,6.56,0,0,1,6.21-4h0c3.9,0,8,2.63,10.36,6.57a11.6,11.6,0,0,1,8.79-6.51,8,8,0,0,1,7.94,3.87c1.42,2.82.72,5.72-2,8.42A19.13,19.13,0,0,1,32.75,30V36.5a.73.73,0,0,1-.35.63A20.88,20.88,0,0,1,21.5,39.86Zm-9.75-3.78c5.23,3.08,14.27,3.08,19.5,0V29.5a.76.76,0,0,1,.41-.67c.09,0,8.3-4.24,5.67-9.5a6.42,6.42,0,0,0-6.45-3.1,10.2,10.2,0,0,0-8.13,6.89V26.5a.75.75,0,0,1-1.5,0V23.17c-2-4.06-6-7-9.7-7h0a5.07,5.07,0,0,0-4.86,3.13C4,24.6,11,28.18,11.34,28.33a.76.76,0,0,1,.41.67Z"/><path d="M24.5,8.25h-5a.75.75,0,0,1,0-1.5h5a.75.75,0,0,1,0,1.5Z"/><path class="cls-2" d="M31.5,29.75a.76.76,0,0,1-.68-.43.77.77,0,0,1,.36-1c.08,0,7.75-3.73,5.69-8.61a5.52,5.52,0,0,0-5.45-2.41,11.47,11.47,0,0,0-8.67,6.84v2h0a.75.75,0,0,1-.75.75h0a.75.75,0,0,1-.75-.75v-2a11.81,11.81,0,0,0-9.54-6.87,4.48,4.48,0,0,0-4.54,2.41c-2.16,4.89,4.22,7.86,4.49,8A.75.75,0,1,1,11,29c-2.78-1.26-7.44-5-5.23-10a5.9,5.9,0,0,1,6-3.28A13.35,13.35,0,0,1,22,22.26a12.87,12.87,0,0,1,9.27-6.45,7,7,0,0,1,6.89,3.12.75.75,0,0,1,.07.12c2.18,5-3.23,9.14-6.4,10.63A.71.71,0,0,1,31.5,29.75Z"/><path class="cls-2" d="M32,37.25a.77.77,0,0,1-.36-.09c-5.31-2.9-15-2.9-20.28,0a.75.75,0,1,1-.72-1.32c5.68-3.1,16-3.1,21.72,0A.75.75,0,0,1,32,37.25Zm0-3.5a.77.77,0,0,1-.36-.09c-5.31-2.9-15-2.9-20.28,0a.75.75,0,1,1-.72-1.32c5.68-3.1,16-3.1,21.72,0A.75.75,0,0,1,32,33.75Zm0-3.5a.77.77,0,0,1-.36-.09c-5.31-2.9-15-2.9-20.28,0a.75.75,0,1,1-.72-1.32c5.68-3.1,16-3.1,21.72,0A.75.75,0,0,1,32,30.25Z"/></svg>