<svg id="Layer_1" data-name="Layer 1" xmlns="http://www.w3.org/2000/svg" viewBox="0 0 44 44"><defs><style>.cls-1{fill:#fff;}</style></defs><title>Chess_Pieces_Sprite</title><path class="cls-1" d="M21.5,8.5a4,4,0,0,0-3.22,6.38,6.45,6.45,0,0,0-.87,10.65C14.41,26.59,10,31.08,10,39H33c0-7.92-4.41-12.41-7.41-13.47a6.45,6.45,0,0,0-.87-10.65A4,4,0,0,0,21.5,8.5Z"/><path d="M33.75,39.75H9.25V39c0-7.46,3.77-12,6.84-13.69a7.2,7.2,0,0,1,1.17-10.66,4.75,4.75,0,1,1,8.48,0,7.2,7.2,0,0,1,1.17,10.66C30,27,33.75,31.54,33.75,39Zm-23-1.5H32.24c-.27-7.1-4.22-11.06-6.9-12l-1.26-.45,1-.84a5.71,5.71,0,0,0-.77-9.42l-.73-.42.49-.67a3.25,3.25,0,1,0-5.22,0l.49.67-.73.42A5.71,5.71,0,0,0,17.88,25l1,.84-1.26.45C15,27.19,11,31.15,10.76,38.25Z"/></svg>