<svg id="Layer_1" data-name="Layer 1" xmlns="http://www.w3.org/2000/svg" viewBox="0 0 44 44"><defs><style>.cls-1{fill:#fff;fill-rule:evenodd;}</style></defs><title>Chess_Pieces_Sprite</title><path class="cls-1" d="M8.5,38.5h27v-3H8.5Z"/><path d="M35.5,39.25H8.5a.76.76,0,0,1-.75-.75v-3a.76.76,0,0,1,.75-.75h27a.76.76,0,0,1,.75.75v3A.76.76,0,0,1,35.5,39.25ZM9.25,37.75h25.5v-1.5H9.25Z"/><path class="cls-1" d="M11.5,35.5v-4h21v4Z"/><path d="M32.5,36.25h-21a.76.76,0,0,1-.75-.75v-4a.76.76,0,0,1,.75-.75h21a.76.76,0,0,1,.75.75v4A.76.76,0,0,1,32.5,36.25Zm-20.25-1.5h19.5v-2.5H12.25Z"/><path class="cls-1" d="M10.5,13.5v-5h4v2h5v-2h5v2h5v-2h4v5"/><path d="M34.25,13.5h-1.5V9.25h-2.5V10.5a.76.76,0,0,1-.75.75h-5a.76.76,0,0,1-.75-.75V9.25h-3.5V10.5a.76.76,0,0,1-.75.75h-5a.76.76,0,0,1-.75-.75V9.25h-2.5V13.5H9.75v-5a.76.76,0,0,1,.75-.75h4a.76.76,0,0,1,.75.75V9.75h3.5V8.5a.76.76,0,0,1,.75-.75h5a.76.76,0,0,1,.75.75V9.75h3.5V8.5a.76.76,0,0,1,.75-.75h4a.76.76,0,0,1,.75.75Z"/><path class="cls-1" d="M33.5,13.5l-3,3h-17l-3-3"/><path d="M30.5,17.25h-17A.75.75,0,0,1,13,17l-3-3A.75.75,0,0,1,11,13l2.78,2.78H30.19L33,13A.75.75,0,0,1,34,14l-3,3A.75.75,0,0,1,30.5,17.25Z"/><path class="cls-1" d="M30.5,16.5V29h-17V16.5"/><polygon points="31.25 29.75 12.75 29.75 12.75 16.5 14.25 16.5 14.25 28.25 29.75 28.25 29.75 16.5 31.25 16.5 31.25 29.75"/><path class="cls-1" d="M30.5,29,32,31.5H12L13.5,29"/><path d="M32,32.25H12a.75.75,0,0,1-.65-.38.74.74,0,0,1,0-.76l1.5-2.5a.75.75,0,1,1,1.28.78l-.82,1.36H30.68l-.82-1.36a.75.75,0,1,1,1.28-.78l1.5,2.5a.74.74,0,0,1,0,.76A.75.75,0,0,1,32,32.25Z"/><path d="M33.5,14.25h-23a.75.75,0,0,1,0-1.5h23a.75.75,0,0,1,0,1.5Z"/></svg>