<svg id="Layer_1" data-name="Layer 1" xmlns="http://www.w3.org/2000/svg" viewBox="0 0 44 44"><defs><style>.cls-1{fill:#fff;}.cls-1,.cls-2{fill-rule:evenodd;}</style></defs><title>Chess_Pieces_Sprite</title><path class="cls-1" d="M21.5,9.5c10.5,1,16.5,8,16,29h-23c0-9,10-6.5,8-21"/><path d="M37.5,39.25h-23a.76.76,0,0,1-.75-.75c0-4.15,2-6.09,4-8,2.53-2.45,5.14-5,4.05-12.93a.75.75,0,1,1,1.48-.2c1.2,8.71-1.82,11.63-4.49,14.2-1.74,1.69-3.26,3.16-3.47,6.15H36.76c.38-22.89-7.52-26.76-15.33-27.5a.75.75,0,0,1,.14-1.5C33.73,9.91,38.72,18.81,38.25,38.52A.75.75,0,0,1,37.5,39.25Z"/><path class="cls-1" d="M23.5,17.5c.38,2.91-5.55,7.37-8,9-3,2-2.82,4.34-5,4-1-.94,1.41-3,0-3-1,0,.19,1.23-1,2-1,0-4,1-4-4,0-2,6-12,6-12s1.89-1.9,2-3.5c-.73-1-.5-2-.5-3,1-1,3,2.5,3,2.5h2a6.72,6.72,0,0,1,2.5-3c1,0,1,3,1,3"/><path d="M10.91,31.28a3.4,3.4,0,0,1-.53,0,.79.79,0,0,1-.38-.18,1.48,1.48,0,0,1-.48-.81l-.4,0A3.81,3.81,0,0,1,6,29.56c-.87-.79-1.29-2.12-1.29-4.06,0-2.1,5.09-10.69,6.11-12.39A.76.76,0,0,1,11,13a7,7,0,0,0,1.75-2.79,4.42,4.42,0,0,1-.49-2.63c0-.19,0-.37,0-.55a.75.75,0,0,1,.22-.53,1.33,1.33,0,0,1,1.13-.39c1.13.15,2.28,1.78,2.83,2.67h1.09a7.28,7.28,0,0,1,2.6-2.9.86.86,0,0,1,.38-.1c1.58,0,1.75,2.62,1.75,3.75a.76.76,0,0,1-.75.75h0a.76.76,0,0,1-.75-.75,6.93,6.93,0,0,0-.29-2.07A6.17,6.17,0,0,0,18.7,9.78a.76.76,0,0,1-.7.47H16a.73.73,0,0,1-.65-.38,9.09,9.09,0,0,0-1.62-2.11,2.59,2.59,0,0,0,.37,1.8.72.72,0,0,1,.15.49c-.12,1.7-1.76,3.5-2.15,3.91C9.65,18,6.25,24.27,6.25,25.5a4.11,4.11,0,0,0,.8,2.95A2.45,2.45,0,0,0,9,28.79l.26,0c.1-.11.11-.25.09-.57A1.34,1.34,0,0,1,9.6,27.1a1.24,1.24,0,0,1,1-.35,1.09,1.09,0,0,1,1,.47c.35.54.07,1.13-.21,1.7a5.14,5.14,0,0,0-.34.86c.47,0,.74-.36,1.32-1.14a10.66,10.66,0,0,1,2.77-2.76C19,23.3,23,19.6,22.76,17.6a.75.75,0,1,1,1.48-.2c.47,3.57-6.25,8.35-8.32,9.72a9.09,9.09,0,0,0-2.41,2.41C12.85,30.43,12.21,31.28,10.91,31.28Z"/><path class="cls-2" d="M9,25a.5.5,0,1,1-.5-.5A.5.5,0,0,1,9,25Z"/><path d="M8.5,26.25A1.25,1.25,0,1,1,9.75,25,1.25,1.25,0,0,1,8.5,26.25Zm0-1.5a.25.25,0,0,0-.25.25c0,.28.5.28.5,0A.25.25,0,0,0,8.5,24.75Z"/><path class="cls-2" d="M14.43,15.25c-.41.72-.94,1.19-1.18,1.05s-.1-.83.32-1.55.94-1.19,1.18-1.05S14.85,14.53,14.43,15.25Z"/><path d="M13.35,17.07a.92.92,0,0,1-.47-.12,1,1,0,0,1-.45-.6,3,3,0,0,1,.49-2,4.15,4.15,0,0,1,.81-1,1.14,1.14,0,0,1,1.4-.29,1,1,0,0,1,.44.6,3,3,0,0,1-.49,2,4.15,4.15,0,0,1-.81,1A1.38,1.38,0,0,1,13.35,17.07Z"/></svg>