<svg id="Layer_1" data-name="Layer 1" xmlns="http://www.w3.org/2000/svg" viewBox="0 0 44 44"><defs><style>.cls-1{fill:#fff;fill-rule:evenodd;}</style></defs><title>Chess_Pieces_Sprite</title><path class="cls-1" d="M8.5,35.5c3.39-1,10.11.43,13.5-2,3.39,2.43,10.11,1,13.5,2a7.92,7.92,0,0,1,3,2c-.68,1-1.65,1-3,.5-3.39-1-10.11.46-13.5-1-3.39,1.46-10.11,0-13.5,1-1.35.49-2.32.47-3-.5A4.2,4.2,0,0,1,8.5,35.5Z"/><path d="M7,39.07a2.5,2.5,0,0,1-2.15-1.14.79.79,0,0,1,0-.86,5.1,5.1,0,0,1,3.48-2.31,21.88,21.88,0,0,1,5.13-.43c2.89,0,6.18-.08,8.07-1.44a.75.75,0,0,1,.88,0c1.89,1.36,5.18,1.4,8.07,1.44a21.28,21.28,0,0,1,5.2.45A8.7,8.7,0,0,1,39.05,37a.74.74,0,0,1,.06.94c-1.09,1.56-2.73,1.19-3.87.78a21.76,21.76,0,0,0-5.75-.29c-2.7.06-5.5.13-7.49-.61-2,.74-4.79.67-7.49.61a21.81,21.81,0,0,0-5.8.3A5,5,0,0,1,7,39.07ZM6.5,37.44c.31.18.8.2,1.74-.15a23,23,0,0,1,6.3-.37c2.69.06,5.46.13,7.16-.61a.78.78,0,0,1,.6,0c1.7.74,4.47.67,7.16.61a22.88,22.88,0,0,1,6.25.36,2.55,2.55,0,0,0,1.7.21,7.29,7.29,0,0,0-2.15-1.28,20.87,20.87,0,0,0-4.77-.38c-2.92,0-6.21-.08-8.49-1.43-2.28,1.35-5.57,1.39-8.49,1.43a20.68,20.68,0,0,0-4.8.39l-.17,0A3.25,3.25,0,0,0,6.5,37.44Z"/><path class="cls-1" d="M14.5,31.5C17,34,27,34,29.5,31.5c.5-1.5,0-2,0-2,0-2.5-2.5-4-2.5-4C32.5,24,33,14,22,10c-11,4-10.5,14-5,15.5,0,0-2.5,1.5-2.5,4C14.5,29.5,14,30,14.5,31.5Z"/><path d="M22,34.13c-1.39,0-6.09-.16-8-2.1a.79.79,0,0,1-.18-.29,3.12,3.12,0,0,1,0-2.47,5.38,5.38,0,0,1,1.78-3.56,6.31,6.31,0,0,1-3.09-5.38c-.15-3.65,2.21-8.46,9.29-11a.92.92,0,0,1,.52,0c7.08,2.58,9.44,7.39,9.29,11a6.31,6.31,0,0,1-3.09,5.38,5.38,5.38,0,0,1,1.78,3.56,3.12,3.12,0,0,1,0,2.47A.79.79,0,0,1,30,32C28.09,34,23.39,34.13,22,34.13Zm-6.84-3c2.38,2.06,11.3,2.06,13.68,0,.24-.82.08-1.12.07-1.12a.58.58,0,0,1-.16-.47c0-2.05-2.11-3.34-2.14-3.36a.75.75,0,0,1,.19-1.36,4.59,4.59,0,0,0,3.25-4.51c.13-3.08-1.93-7.15-8-9.47-6.12,2.32-8.18,6.39-8,9.47a4.59,4.59,0,0,0,3.25,4.51.75.75,0,0,1,.19,1.36s-2.14,1.33-2.14,3.36A.76.76,0,0,1,15,30,2.66,2.66,0,0,0,15.16,31.09Z"/><path class="cls-1" d="M24.5,7.5A2.5,2.5,0,1,1,22,5,2.5,2.5,0,0,1,24.5,7.5Z"/><path d="M22,10.75A3.25,3.25,0,1,1,25.25,7.5,3.26,3.26,0,0,1,22,10.75Zm0-5A1.75,1.75,0,1,0,23.75,7.5,1.76,1.76,0,0,0,22,5.75Z"/><path d="M29.5,30.25h-15a.75.75,0,0,1,0-1.5h15a.75.75,0,0,1,0,1.5Zm-2.5-4H17a.75.75,0,0,1,0-1.5H27a.75.75,0,0,1,0,1.5Zm-5-5.5a.76.76,0,0,1-.75-.75V18.25H19.5a.75.75,0,0,1,0-1.5h1.75V15a.75.75,0,0,1,1.5,0v1.75H24.5a.75.75,0,0,1,0,1.5H22.75V20A.76.76,0,0,1,22,20.75Z"/></svg>