<svg id="Layer_1" data-name="Layer 1" xmlns="http://www.w3.org/2000/svg" viewBox="0 0 43.98 43.98"><defs><style>.cls-1{fill:#fff;fill-rule:evenodd;}</style></defs><title>Chess_Pieces_Sprite</title><path class="cls-1" d="M7.5,11.48a2,2,0,1,1-2-2A2,2,0,0,1,7.5,11.48Z"/><path d="M5.5,14.23a2.75,2.75,0,1,1,2.75-2.75A2.75,2.75,0,0,1,5.5,14.23Zm0-4a1.25,1.25,0,1,0,1.25,1.25A1.25,1.25,0,0,0,5.5,10.23Z"/><path class="cls-1" d="M24,7a2,2,0,1,1-2-2A2,2,0,0,1,24,7Z"/><path d="M22,9.73A2.75,2.75,0,1,1,24.75,7,2.75,2.75,0,0,1,22,9.73Zm0-4A1.25,1.25,0,1,0,23.25,7,1.25,1.25,0,0,0,22,5.73Z"/><path class="cls-1" d="M40.5,11.48a2,2,0,1,1-2-2A2,2,0,0,1,40.5,11.48Z"/><path d="M38.5,14.23a2.75,2.75,0,1,1,2.75-2.75A2.75,2.75,0,0,1,38.5,14.23Zm0-4a1.25,1.25,0,1,0,1.25,1.25A1.25,1.25,0,0,0,38.5,10.23Z"/><path class="cls-1" d="M15.5,8a2,2,0,1,1-2-2A2,2,0,0,1,15.5,8Z"/><path d="M13.5,10.73A2.75,2.75,0,1,1,16.25,8,2.75,2.75,0,0,1,13.5,10.73Zm0-4A1.25,1.25,0,1,0,14.75,8,1.25,1.25,0,0,0,13.5,6.73Z"/><path class="cls-1" d="M32.5,8.48a2,2,0,1,1-2-2A2,2,0,0,1,32.5,8.48Z"/><path d="M30.5,11.23a2.75,2.75,0,1,1,2.75-2.75A2.75,2.75,0,0,1,30.5,11.23Zm0-4a1.25,1.25,0,1,0,1.25,1.25A1.25,1.25,0,0,0,30.5,7.23Z"/><path class="cls-1" d="M8.5,25.48c8.5-1.5,21-1.5,27,0l2-12-7,11v-14L25,24,22,9,19,24,13.5,10v14.5l-7-11Z"/><path d="M8.5,26.23a.74.74,0,0,1-.43-.14.71.71,0,0,1-.31-.48l-2-12a.75.75,0,0,1,1.37-.53l5.62,8.83V10a.75.75,0,0,1,1.45-.27l4.57,11.62,2.49-12.5a.76.76,0,0,1,1.48,0l2.51,12.56L29.81,10.2a.75.75,0,0,1,1.44.28V21.91l5.62-8.83a.75.75,0,0,1,1.37.53l-2,12a.74.74,0,0,1-.33.5.76.76,0,0,1-.59.1c-5.87-1.47-18.34-1.46-26.69,0ZM7.85,17l1.27,7.63c1.05-.17,2.15-.32,3.29-.45Zm23.81,7.07c1.18.14,2.27.31,3.23.51L36.15,17ZM14.25,13.94V24c1.26-.11,2.55-.2,3.84-.26ZM26,23.65c1.32,0,2.59.11,3.8.21V14.31ZM22,12.81,19.83,23.65c1.46,0,2.91-.06,4.33,0Z"/><path class="cls-1" d="M8.5,25.48c0,2,1.5,2,2.5,4,1,1.5,1,1,.5,3.5a3.23,3.23,0,0,0-1.5,2.5c-1.5,1.5.5,2.5.5,2.5a88.54,88.54,0,0,0,23,0s1.5-1,0-2.5a2.22,2.22,0,0,0-1-2.5c-.5-2.5-.5-2,.5-3.5,1-2,2.5-2,2.5-4A81.56,81.56,0,0,0,8.5,25.48Z"/><path d="M22,39.49a79.84,79.84,0,0,1-11.61-.77.62.62,0,0,1-.23-.07,2.73,2.73,0,0,1-1.44-1.77,2.07,2.07,0,0,1,.56-1.72,4.06,4.06,0,0,1,1.54-2.62l0-.2c.27-1.35.27-1.35-.13-1.92a5.66,5.66,0,0,1-.36-.52,5.45,5.45,0,0,0-1.27-1.63,3.45,3.45,0,0,1-1.36-2.79.76.76,0,0,1,.62-.74,83.13,83.13,0,0,1,27.26,0,.76.76,0,0,1,.62.74,3.45,3.45,0,0,1-1.36,2.79,5.17,5.17,0,0,0-1.22,1.55,6.38,6.38,0,0,1-.41.6c-.4.57-.4.57-.13,1.92l0,.21a3,3,0,0,1,1.13,2.71,2.32,2.32,0,0,1,.6,1.73,2.41,2.41,0,0,1-1,1.62.68.68,0,0,1-.31.11A79.84,79.84,0,0,1,22,39.49ZM10.75,37.26a88.62,88.62,0,0,0,22.43,0,.79.79,0,0,0,.24-.43A1.26,1.26,0,0,0,33,36a.75.75,0,0,1-.18-.77,1.46,1.46,0,0,0-.71-1.63.8.8,0,0,1-.32-.48l-.1-.5c-.36-1.78-.37-2,.38-3.07.09-.14.21-.3.34-.49a6.43,6.43,0,0,1,1.47-1.88,2.66,2.66,0,0,0,.82-1.09,81.57,81.57,0,0,0-25.34,0,2.66,2.66,0,0,0,.82,1.09,6.72,6.72,0,0,1,1.52,2c.08.11.2.27.29.41.75,1.06.74,1.29.38,3.07l-.1.5a.8.8,0,0,1-.32.48,2.48,2.48,0,0,0-1.17,1.87.75.75,0,0,1-.22.53c-.17.17-.37.42-.33.63S10.56,37.14,10.75,37.26Z"/><path d="M33,30.23a.76.76,0,0,1-.21,0c-3.33-.95-18.25-.95-21.58,0a.75.75,0,0,1-.93-.51.76.76,0,0,1,.51-.93c3.67-1.05,18.75-1.05,22.42,0a.76.76,0,0,1,.51.93A.74.74,0,0,1,33,30.23Z"/><path d="M32.5,33.73h-.12a72.93,72.93,0,0,0-20.76,0,.75.75,0,0,1-.86-.61.76.76,0,0,1,.62-.87,74.82,74.82,0,0,1,21.24,0,.75.75,0,0,1-.12,1.49Z"/></svg>